<svg version="1.1" id="Layer_1" xmlns="http://www.w3.org/2000/svg" xmlns:xlink="http://www.w3.org/1999/xlink" x="0px" y="0px"
	 width="100%" viewBox="0 0 1024 1024" enable-background="new 0 0 1024 1024" xml:space="preserve">
<path fill="#000000" opacity="1.000000" stroke="none" 
	d="
M439.943787,161.722916 
	C471.900421,153.501404 503.900177,150.901489 536.378357,153.567291 
	C609.079163,159.534546 670.634277,189.146591 720.973206,241.603210 
	C762.756287,285.144135 788.621765,337.021912 797.312988,396.847748 
	C809.520325,480.877960 788.982483,556.427856 735.845581,622.666504 
	C701.312317,665.714478 657.209534,695.591003 605.185120,713.794495 
	C601.599304,715.049194 599.478210,716.866699 597.941711,720.460388 
	C582.987549,755.435120 548.104431,777.211060 510.004120,775.448914 
	C471.402710,773.663635 444.046234,755.050964 427.953613,719.976990 
	C426.495728,716.799500 424.528046,715.077698 421.275208,713.970764 
	C379.271698,699.676208 342.279205,677.040894 310.677338,645.959717 
	C273.517517,609.412048 248.223145,565.765686 234.759354,515.367126 
	C228.376007,491.472595 224.891357,467.123993 224.954041,442.386932 
	C225.141647,368.356110 249.315918,303.184814 298.830017,248.051147 
	C337.060455,205.481750 384.022095,176.495422 439.943787,161.722916 
M608.413879,703.718079 
	C654.425659,686.780945 693.789856,659.968750 725.373352,622.542419 
	C780.745178,556.927124 802.142944,480.938812 789.255554,396.324554 
	C778.647522,326.676086 745.007568,268.969482 690.287537,224.499588 
	C621.042664,168.225677 541.776062,148.994873 454.608551,166.840424 
	C380.916077,181.927261 322.770111,222.135422 280.586792,284.310120 
	C243.548874,338.900970 228.232819,399.526581 234.152802,465.425354 
	C237.041168,497.577576 244.861862,528.418945 258.598633,557.576477 
	C290.421661,625.123596 341.516144,672.546753 410.246552,701.210815 
	C413.680695,702.643005 417.103424,704.582458 421.057373,704.247742 
	C422.545410,697.829041 422.082184,697.153320 414.691284,694.289490 
	C378.576508,680.295349 346.783875,659.527588 319.690948,631.962646 
	C276.318420,587.834656 250.978638,534.733948 243.082611,473.398499 
	C242.361969,467.800781 241.080765,461.983124 242.397614,456.211182 
	C250.711288,456.966125 252.994064,459.629578 254.119995,469.699341 
	C258.853027,512.028564 273.018280,550.866821 296.932953,586.156616 
	C326.465698,629.736694 365.563354,661.514038 414.219482,681.556580 
	C419.120087,683.575317 420.333069,682.856934 420.658783,677.934692 
	C423.322418,637.682678 453.064148,603.143738 492.440216,594.637512 
	C495.334656,594.012207 497.561584,592.760925 499.410980,590.314514 
	C503.491516,584.916626 507.718445,579.605713 513.240356,574.364441 
	C517.399658,579.356873 521.434937,583.748291 524.924805,588.537109 
	C527.565002,592.160095 530.795288,593.880432 535.109009,594.881653 
	C571.412781,603.308228 599.320435,634.068726 604.453308,671.041443 
	C605.011292,675.060913 605.403748,679.103333 605.920227,683.541321 
	C608.048157,682.815430 609.630249,682.364136 611.144226,681.746155 
	C643.812378,668.413147 672.861328,649.453796 697.559875,624.305664 
	C746.173828,574.807007 771.281677,515.018494 773.518738,445.772156 
	C774.434021,417.437775 770.062012,389.691833 761.540955,362.629669 
	C745.994934,313.256836 717.966553,272.223541 678.189941,239.328369 
	C635.578308,204.088593 586.410400,184.462250 531.307190,180.511414 
	C507.346191,178.793442 483.391083,180.315109 459.743622,185.299805 
	C401.774292,197.519333 353.480011,226.315079 314.897247,270.973389 
	C283.498901,307.316010 264.043060,349.607239 255.678009,396.956573 
	C255.311417,399.031555 255.416168,401.547668 252.746262,403.152252 
	C250.973755,398.730896 252.794937,394.255463 251.208160,389.910431 
	C248.277878,392.195160 250.113281,396.164703 247.182770,398.231964 
	C244.066925,395.231537 245.696289,391.769501 246.264694,388.883636 
	C258.740082,325.545807 289.609833,272.802216 339.248474,231.655029 
	C398.815826,182.277618 467.613068,162.443893 544.479309,170.618362 
	C581.406067,174.545395 615.909180,185.976456 648.094788,204.542664 
	C749.678284,263.140808 803.357422,379.573090 778.991394,494.243011 
	C758.571167,590.343201 701.201721,656.991394 610.189758,694.321716 
	C605.344421,696.309082 603.304443,698.934570 603.966736,703.911865 
	C605.242798,705.094971 606.484070,704.389221 608.413879,703.718079 
M446.496002,637.987793 
	C434.732208,655.037659 429.901245,674.049438 432.614502,694.403564 
	C438.658203,739.741943 480.504639,770.722168 525.785278,763.473267 
	C568.562927,756.624878 597.413879,718.204041 593.841248,677.300232 
	C590.641541,640.665283 563.466187,610.724365 527.091492,604.522461 
	C524.168457,604.024048 522.318481,602.741516 520.501343,600.652710 
	C518.063232,597.850098 516.433655,594.199524 512.809998,592.535400 
	C509.340912,594.871887 507.464661,598.306580 505.024597,601.224121 
	C503.711487,602.794067 502.437988,603.990540 500.211456,604.370789 
	C477.998077,608.163879 460.150177,619.082703 446.496002,637.987793 
z"/>
<path fill="#000000" opacity="1.000000" stroke="none" 
	d="
M665.775574,817.454590 
	C676.374084,814.763794 686.612244,815.372070 696.640015,818.134216 
	C703.875488,820.127319 708.105896,825.459351 709.113770,832.851257 
	C710.116272,840.203430 708.178772,846.705017 702.005249,851.453491 
	C701.231201,852.048889 700.493958,852.692078 699.296997,853.677490 
	C702.168945,857.655640 704.970215,861.493896 707.726257,865.364319 
	C710.970520,869.920227 710.931030,873.396484 707.663086,875.909241 
	C704.305176,878.491211 699.158081,877.704285 696.251709,873.667542 
	C693.052490,869.223999 690.143738,864.546387 687.426331,859.789246 
	C685.509155,856.433167 682.735962,855.708496 679.416504,856.404480 
	C675.805847,857.161560 677.108398,860.298035 676.922974,862.568481 
	C676.693359,865.379517 676.875916,868.222961 676.677246,871.038086 
	C676.379761,875.255493 673.896118,877.230591 669.761902,877.269165 
	C665.745056,877.306702 662.958496,875.628479 662.374207,871.445862 
	C662.054626,869.158630 662.120544,866.809387 662.114014,864.487854 
	C662.078979,852.024109 662.060242,839.560181 662.071472,827.096375 
	C662.074646,823.578186 662.100769,820.025513 665.775574,817.454590 
M694.720276,837.264526 
	C694.146851,830.431641 690.263245,828.093628 680.933716,828.302795 
	C674.139526,828.455078 676.947510,833.394714 676.440430,836.643372 
	C676.186951,838.267212 676.405762,839.968750 676.452332,841.633911 
	C676.481262,842.667969 676.803589,843.563904 677.756470,844.164978 
	C682.328674,847.049072 692.387756,843.409790 694.720276,837.264526 
z"/>
<path fill="#000000" opacity="1.000000" stroke="none" 
	d="
M269.080505,816.620239 
	C277.811554,814.909729 286.038879,814.915222 294.026733,818.112671 
	C297.284637,819.416748 299.855164,821.540833 300.035889,825.367310 
	C300.251007,829.922058 295.485779,832.994751 290.851685,831.112854 
	C285.820892,829.069885 280.750488,827.543213 275.317657,828.646484 
	C264.964935,830.748840 259.673584,841.234497 262.837646,853.102051 
	C265.408020,862.742859 275.133270,867.760620 284.932404,864.617737 
	C288.657501,863.422974 287.458984,860.463806 287.592133,857.973694 
	C287.723236,855.522095 286.555511,854.226990 284.014648,854.308960 
	C281.067322,854.404114 278.309326,854.085571 276.837219,850.974792 
	C274.856567,846.789185 277.248138,842.419556 282.162964,841.991516 
	C286.460632,841.617310 290.824249,841.701111 295.140533,841.928345 
	C299.064087,842.134949 301.191711,844.584961 301.270111,848.473511 
	C301.397705,854.800842 301.320465,861.132141 301.341248,867.461792 
	C301.349792,870.059204 299.954681,871.780823 297.960449,873.229553 
	C280.725159,885.750122 252.480301,875.531921 248.184738,854.831116 
	C244.606430,837.586792 251.596054,821.670288 269.080505,816.620239 
z"/>
<path fill="#000000" opacity="1.000000" stroke="none" 
	d="
M747.914917,815.965820 
	C750.893188,816.049255 753.411133,815.940857 755.872925,816.262573 
	C759.848145,816.782104 761.584656,819.308350 761.362305,823.245117 
	C761.143799,827.113953 758.853455,828.978333 755.211731,829.061707 
	C749.387817,829.195190 743.552124,829.250488 737.733215,829.029419 
	C733.108276,828.853638 733.352417,831.731628 733.268005,834.911865 
	C733.182495,838.132019 733.929993,839.966064 737.658752,839.794495 
	C742.143982,839.588196 746.647339,839.787964 751.142883,839.790161 
	C755.404297,839.792175 757.874939,842.020874 757.840027,846.152100 
	C757.804626,850.341248 755.194336,852.345520 750.958008,852.284180 
	C746.463623,852.219055 741.965759,852.367004 737.472107,852.280518 
	C732.196655,852.179016 733.522400,856.046143 733.353760,858.977173 
	C733.184875,861.913452 733.019897,864.849609 737.450256,864.607727 
	C741.767334,864.372009 746.097107,864.342529 750.422119,864.286133 
	C752.576782,864.258057 754.759521,864.178101 756.883240,864.465027 
	C760.686584,864.978882 762.293884,867.621460 762.151367,871.168152 
	C762.013000,874.609924 759.948059,876.925842 756.473328,876.970093 
	C746.321716,877.099670 736.161072,877.128113 726.015076,876.824707 
	C721.244568,876.682007 718.870178,873.353516 718.833618,868.799316 
	C718.714844,853.981750 718.703857,839.161682 718.849548,824.344543 
	C718.901794,819.034607 721.390137,816.518799 726.956787,816.231750 
	C733.767395,815.880615 740.604004,816.032593 747.914917,815.965820 
z"/>
<path fill="#000000" opacity="1.000000" stroke="none" 
	d="
M426.879181,816.010254 
	C429.357178,816.079224 431.367096,816.028992 433.347595,816.246521 
	C437.242126,816.674377 439.380615,818.865112 439.340088,822.869080 
	C439.298126,827.016113 436.847046,828.912659 432.979767,829.004639 
	C427.316498,829.139282 421.640808,829.238220 415.984192,829.010132 
	C411.614502,828.833984 411.249023,831.238525 411.218719,834.674561 
	C411.188660,838.084717 411.879822,840.068359 415.872589,839.841614 
	C420.191528,839.596252 424.536774,839.735107 428.868500,839.816345 
	C433.011688,839.893982 435.411377,841.785583 435.383423,846.245361 
	C435.354523,850.853760 432.721191,852.307007 428.610718,852.272949 
	C424.111206,852.235657 419.609680,852.345276 415.111725,852.254944 
	C412.341339,852.199402 411.384064,853.391541 411.238342,856.132507 
	C410.787262,864.617554 410.735931,864.668823 419.443115,864.667908 
	C424.276306,864.667419 429.109711,864.667114 433.942566,864.618958 
	C437.858032,864.579895 439.892761,866.750000 440.107758,870.375610 
	C440.339386,874.282288 438.290131,876.919617 434.260559,876.986572 
	C424.264771,877.152588 414.259491,877.218994 404.267639,876.957886 
	C399.162506,876.824524 396.742035,874.026367 396.714111,868.914856 
	C396.633118,854.082275 396.636963,839.248718 396.706268,824.416016 
	C396.733582,818.575806 398.890289,816.283203 404.900482,816.086365 
	C412.059387,815.851990 419.231476,816.018921 426.879181,816.010254 
z"/>
<path fill="#000000" opacity="1.000000" stroke="none" 
	d="
M533.417603,817.155273 
	C545.059021,821.017395 550.387695,828.965942 549.254883,840.331543 
	C548.262634,850.286438 540.466003,857.286133 529.156555,858.386963 
	C527.997437,858.499695 526.845642,858.687073 525.686707,858.802063 
	C516.500732,859.713257 516.500427,859.710449 516.385376,869.291504 
	C516.319397,874.785522 514.366516,877.139893 509.740143,877.303101 
	C504.832672,877.476135 502.202698,875.138672 502.190704,869.536072 
	C502.157471,854.057556 501.520538,838.566650 502.651550,823.101379 
	C502.992004,818.445862 505.599365,816.106018 511.140594,815.921631 
	C518.452209,815.678284 525.795166,815.433960 533.417603,817.155273 
M517.805054,846.327942 
	C520.924255,847.007812 524.118408,847.000610 527.195190,846.487488 
	C531.526611,845.765198 534.402588,843.250366 534.682739,838.528320 
	C534.962708,833.810974 533.064819,830.588196 528.402466,829.067322 
	C525.796875,828.217285 523.165649,828.443970 520.526794,828.320740 
	C517.537720,828.181152 516.226807,829.572754 516.406067,832.488220 
	C516.679321,836.933350 516.964966,841.377808 517.805054,846.327942 
z"/>
<path fill="#000000" opacity="1.000000" stroke="none" 
	d="
M444.892700,868.928589 
	C448.343018,862.392029 452.814453,856.976074 457.017029,851.404907 
	C459.768738,847.757141 460.563843,844.914490 457.256287,841.019104 
	C453.610474,836.725220 450.620972,831.849792 447.563416,827.087830 
	C444.768494,822.734924 445.206146,819.177246 448.435608,816.928162 
	C451.658569,814.683411 456.180573,815.531616 458.960907,819.369385 
	C462.452942,824.189575 465.594147,829.263916 468.792114,834.085938 
	C471.499634,833.839050 471.952301,831.789307 472.923096,830.362366 
	C475.543640,826.510315 477.828705,822.409241 480.670563,818.734619 
	C483.412079,815.189880 488.283875,814.640930 491.320160,817.258850 
	C494.738403,820.206055 494.387238,823.577820 491.930786,827.017944 
	C488.254211,832.166931 484.708618,837.412781 480.916229,842.474304 
	C479.026031,844.996948 478.959900,847.077759 480.852783,849.636536 
	C484.713745,854.855835 488.360931,860.233887 492.067383,865.566589 
	C495.144531,869.993774 494.949890,873.652466 491.562134,876.104553 
	C488.194061,878.542419 483.482117,877.719849 480.646118,873.783264 
	C476.883026,868.559692 473.426086,863.115479 469.581207,857.383911 
	C465.600952,861.531006 463.549957,866.332031 460.555450,870.456238 
	C458.992523,872.608704 457.711517,875.051636 455.311920,876.387329 
	C452.660980,877.862854 449.851868,877.833252 447.237854,876.242920 
	C444.588928,874.631226 444.080872,872.131104 444.892700,868.928589 
z"/>
<path fill="#000000" opacity="1.000000" stroke="none" 
	d="
M611.429932,869.910645 
	C597.534119,863.441345 591.332764,852.055786 593.694214,837.861938 
	C595.847961,824.916504 606.827271,814.658081 620.864014,814.077026 
	C644.440552,813.101196 656.847900,835.515564 649.192627,853.837036 
	C647.214600,858.570984 648.030151,861.149597 651.556702,863.979065 
	C653.363220,865.428589 654.909668,867.214539 656.502319,868.915222 
	C658.474487,871.021301 658.810730,873.390198 656.920288,875.662964 
	C654.894897,878.098083 652.115356,878.269287 649.750122,876.574524 
	C647.069031,874.653381 644.690735,872.247925 642.430420,869.820618 
	C640.561340,867.813354 638.937988,867.368774 636.367126,868.723083 
	C628.436646,872.900757 620.193054,873.474609 611.429932,869.910645 
M603.862183,850.473145 
	C604.546692,851.798218 605.122620,853.194153 605.933472,854.436768 
	C610.897827,862.044128 621.651917,865.108765 630.275208,861.427917 
	C638.645691,857.855103 643.945984,848.265991 642.094055,840.045776 
	C639.394714,828.063904 628.720093,820.915771 617.761292,823.751404 
	C606.275330,826.723511 600.276123,837.708862 603.862183,850.473145 
z"/>
<path fill="#000000" opacity="1.000000" stroke="none" 
	d="
M342.480225,871.940674 
	C336.247131,872.818359 330.683929,871.637268 325.642883,868.971130 
	C322.267090,867.185791 320.191772,867.901672 317.922394,870.474121 
	C316.171661,872.458679 314.217865,874.303650 312.154449,875.961853 
	C309.989105,877.701904 307.488068,877.946533 305.356201,875.910706 
	C303.271423,873.919800 302.753723,870.952087 304.901306,869.233154 
	C312.685211,863.002747 311.961700,856.137085 310.175781,846.918823 
	C306.905609,830.039246 318.704926,816.519958 335.923340,814.198975 
	C349.740356,812.336548 364.775574,823.375549 367.193726,837.158020 
	C370.114227,853.803711 360.639069,867.799194 343.873505,871.605469 
	C343.549255,871.679077 343.228668,871.768982 342.480225,871.940674 
M358.650238,841.762512 
	C358.569397,839.204529 357.632202,836.863464 356.613586,834.595581 
	C352.834503,826.181885 342.534302,821.447571 333.655609,823.945923 
	C324.449860,826.536316 317.455780,836.050598 318.590424,844.439758 
	C320.127502,855.804443 329.022278,863.258972 340.406677,862.723694 
	C350.544464,862.246948 358.211792,853.793640 358.650238,841.762512 
z"/>
<path fill="#000000" opacity="1.000000" stroke="none" 
	d="
M573.041504,877.121338 
	C557.457397,877.078369 556.995422,876.644714 557.004395,861.326660 
	C557.011841,848.693481 557.019775,836.058716 557.228027,823.427979 
	C557.298645,819.146545 559.362244,816.048279 564.107361,815.817383 
	C568.380310,815.609375 571.129761,818.344116 571.743774,823.271912 
	C571.948547,824.915527 571.984619,826.587097 571.995911,828.246643 
	C572.063599,838.220947 572.076111,848.195740 572.172974,858.169678 
	C572.190308,859.954529 571.774353,861.823486 572.997314,863.997192 
	C578.701233,863.997192 584.636841,863.968628 590.571899,864.010864 
	C593.062744,864.028625 595.711609,863.920593 597.358826,866.287109 
	C598.828125,868.397949 599.603149,870.687805 598.445068,873.312683 
	C597.277100,875.959900 595.128540,876.996155 592.483276,877.039856 
	C586.167908,877.144165 579.850220,877.105286 573.041504,877.121338 
z"/>
<path fill="#000000" opacity="1.000000" stroke="none" 
	d="
M310.751465,491.046570 
	C284.338654,391.010956 336.456238,285.589172 431.914429,246.778976 
	C490.535797,222.945435 548.838928,224.494675 606.078430,252.092987 
	C609.653503,253.816727 612.540710,253.821594 615.902588,251.950546 
	C623.062256,247.965790 630.554016,244.778702 638.690857,243.294678 
	C643.742493,242.373352 648.707336,242.888870 653.502014,244.403473 
	C665.662415,248.244858 670.590210,259.229950 665.634583,271.046509 
	C664.070923,274.775024 661.828979,278.120392 659.121216,281.057129 
	C656.017395,284.423523 656.166992,286.891144 659.547791,290.224579 
	C674.710876,305.175171 687.390869,322.051361 697.356384,340.902954 
	C711.318848,367.315277 719.494324,395.436890 721.335754,425.252289 
	C724.366760,474.329865 710.983276,518.751221 682.437439,558.640869 
	C662.679688,586.250244 637.503906,607.612732 607.236450,622.990112 
	C604.602478,624.328308 601.681885,625.287354 599.864258,627.796875 
	C599.763123,629.910828 601.914124,631.384399 601.002747,634.268982 
	C598.516663,631.214539 596.175476,628.580688 594.101379,625.750977 
	C579.518860,605.855957 560.141052,593.193298 536.287720,587.235596 
	C530.208069,585.717163 528.782654,579.729004 524.737671,576.015930 
	C540.142334,565.763916 534.647888,551.120483 533.345947,537.784546 
	C532.673584,530.897583 521.015747,526.423035 515.713806,531.742065 
	C514.545044,532.914673 513.393738,533.588745 511.366425,532.529541 
	C502.137421,527.707703 497.545715,529.051147 491.829559,537.765808 
	C491.486755,538.288391 490.998535,538.715576 490.351837,539.440796 
	C487.995667,536.495728 491.187592,533.368835 489.098236,530.035034 
	C468.182739,530.198181 447.989166,535.820740 427.882965,541.757935 
	C427.496521,545.317383 429.233978,547.726624 430.356689,550.221802 
	C435.483643,561.616028 440.901978,572.879089 447.728271,583.378052 
	C452.067413,590.051636 453.338623,590.046265 457.883575,583.759888 
	C461.390747,578.908997 466.057678,575.020386 469.110992,569.762939 
	C470.593658,567.210022 473.378265,565.688538 476.348938,566.051514 
	C483.152557,566.882874 486.471466,563.125000 488.688812,557.535828 
	C488.929199,556.929871 489.290405,556.369202 489.627930,555.806885 
	C489.692047,555.700073 489.908875,555.684998 490.770660,555.347168 
	C491.094818,563.453003 490.925201,571.892029 500.943268,575.231140 
	C496.247833,581.149658 492.879944,586.480652 485.123962,588.646057 
	C461.141510,595.341614 442.381378,609.772766 428.467682,630.448853 
	C426.706543,633.065918 424.950165,635.686218 422.671448,639.079590 
	C422.354095,635.655396 423.521576,633.419189 424.377960,631.116333 
	C425.379608,628.422913 424.968170,626.235229 422.143646,624.854248 
	C403.466827,615.721802 386.375702,604.245605 371.010773,590.219116 
	C370.805267,590.031494 370.398834,590.063904 369.691223,589.904846 
	C368.644470,592.122192 368.411224,594.550049 368.382141,596.997498 
	C368.322723,601.995789 368.280243,606.995361 368.327118,611.993530 
	C368.404175,620.205688 369.454193,621.622253 377.115875,624.246948 
	C386.111572,627.328552 388.432739,634.201172 383.402466,642.860779 
	C379.389343,649.769409 381.694458,654.404419 389.814819,655.647949 
	C391.456268,655.899292 393.144836,656.084595 394.794159,655.991150 
	C398.025177,655.808105 400.618805,656.830750 402.778687,659.263000 
	C404.845612,661.590576 407.296631,663.211060 410.671265,662.614807 
	C412.097687,662.362732 413.433960,662.551880 413.709778,664.316895 
	C413.996643,666.152771 413.959290,668.002075 412.888428,669.626282 
	C411.923462,671.089966 410.537445,670.675476 409.309052,670.132141 
	C402.606323,667.167480 395.899506,664.217896 389.528381,660.553528 
	C371.408752,650.132019 354.270782,638.394531 339.569122,623.394470 
	C337.912659,621.704468 335.629913,620.294067 335.411591,616.418396 
	C340.798553,618.715698 345.613434,614.155212 351.124298,617.227539 
	C354.073578,618.871826 358.217133,618.557312 361.841888,618.752869 
	C365.181274,618.933044 364.540497,616.668396 363.848206,614.635803 
	C360.951508,606.130676 357.813049,597.700439 356.262238,588.796021 
	C355.606079,585.028320 354.595001,581.312561 354.653168,577.449463 
	C354.707367,573.851196 352.806366,571.191833 350.671478,568.550110 
	C332.111053,545.583679 318.393951,520.104431 310.751465,491.046570 
M514.217896,385.727112 
	C512.010742,386.397522 509.547333,387.701172 507.991486,384.919312 
	C505.929260,381.232178 502.877472,381.595276 499.766602,382.651428 
	C493.022125,384.941254 486.144714,385.691742 479.079681,385.061646 
	C475.466248,384.739441 472.318115,386.052979 468.814484,387.967133 
	C470.200623,389.122467 471.298920,390.049652 472.409698,390.961670 
	C477.516632,395.154694 477.138824,395.159363 472.734161,399.974640 
	C466.732117,406.536285 458.951355,411.182587 454.369995,419.403198 
	C449.801605,427.600555 449.035706,427.173676 456.058289,433.450348 
	C460.722626,437.619232 460.147827,440.625305 454.263763,442.651581 
	C449.756470,444.203735 445.216125,444.397186 440.480042,443.530640 
	C436.978729,442.890015 433.140625,441.969940 430.351990,445.613922 
	C425.901184,451.429901 421.111786,456.995575 417.361908,463.325378 
	C413.032959,470.632690 411.310089,478.778259 412.624115,486.898468 
	C414.800049,500.344330 417.792786,513.670166 421.736877,526.766663 
	C423.121765,531.365112 425.180542,531.804504 429.307617,530.393921 
	C437.968689,527.433533 446.901794,525.446960 455.891907,523.645935 
	C470.446960,520.730164 485.196198,519.412292 499.893768,517.627075 
	C506.681274,516.802612 507.886597,515.309387 507.934631,508.199677 
	C507.986359,500.536835 507.857788,492.872314 507.958282,485.210480 
	C507.992065,482.635895 507.637268,479.887146 509.573151,477.404510 
	C510.720886,478.702545 511.805756,480.929749 512.810913,480.894379 
	C517.330811,480.735077 516.801453,484.004883 517.173828,486.606506 
	C518.169678,493.563293 518.085388,500.507446 517.315857,507.519440 
	C516.437256,515.525085 517.972351,517.631348 525.748901,518.135254 
	C550.424194,519.733948 574.726868,523.290405 598.327515,530.869751 
	C601.998962,532.048767 602.849121,530.201477 603.816833,527.258728 
	C612.356262,501.292572 616.157104,474.552490 617.425781,447.345123 
	C617.615234,443.282379 616.418091,442.206146 612.478516,442.238281 
	C595.653748,442.375488 578.826477,442.229828 562.000305,442.162201 
	C560.003357,442.154175 557.987610,442.134949 556.015076,441.867035 
	C552.916199,441.446228 548.891724,437.027191 549.590759,434.621490 
	C550.529602,431.390228 553.565308,432.283936 555.913879,432.026642 
	C557.398376,431.864014 558.909302,431.923218 560.408508,431.917908 
	C577.401550,431.857574 594.394714,431.815796 611.387695,431.742920 
	C618.078979,431.714233 618.398132,431.422485 617.917908,424.585571 
	C617.556702,419.443542 617.360291,414.231598 616.308167,409.214874 
	C615.459229,405.166748 616.873535,400.518494 613.083008,396.255096 
	C610.802795,401.766388 609.005066,407.081421 604.350159,410.349030 
	C599.173340,413.983032 593.931580,417.530273 588.623779,420.969788 
	C585.162781,423.212555 581.835266,422.098877 580.016663,418.913513 
	C578.144897,415.635223 575.630615,413.632874 572.399414,412.110077 
	C570.187927,411.067810 568.582275,409.176392 567.848694,406.979767 
	C565.004700,398.463959 561.483521,390.152130 559.604858,381.338348 
	C558.536133,376.324554 556.692078,375.148956 552.010010,377.576630 
	C545.081177,381.169373 538.954468,382.070709 532.468933,375.971741 
	C527.386169,371.192017 519.327759,374.429016 517.905273,381.069733 
	C517.496948,382.976074 516.711975,384.513458 514.217896,385.727112 
M672.962402,321.515533 
	C671.040588,319.001953 669.023926,316.554199 667.221863,313.957520 
	C665.140625,310.958649 663.045044,310.363922 659.815552,312.598938 
	C650.893982,318.773224 641.260010,323.737457 631.447083,328.324066 
	C627.555359,330.143066 626.799500,332.737213 627.657288,336.820435 
	C629.014954,343.283051 628.008545,349.620026 624.460022,355.313232 
	C621.638245,359.840363 620.248474,364.299408 621.455566,369.881378 
	C625.292786,387.624237 627.311584,405.643799 627.939758,423.782135 
	C628.098816,428.374908 628.257019,432.312500 633.886536,433.159271 
	C634.009827,433.177795 634.049927,433.749786 634.115479,434.063934 
	C633.523315,436.083069 630.747864,435.504547 630.096069,437.377380 
	C630.051880,438.994965 632.465515,439.510254 631.639587,441.621429 
	C629.140991,442.073059 628.312073,443.671906 628.126099,446.445099 
	C627.287415,458.948517 626.141052,471.406281 624.435425,483.857941 
	C622.166992,500.418091 618.488342,516.532776 613.151550,532.300842 
	C612.070374,535.495422 613.423462,536.420105 615.903381,537.377075 
	C631.820435,543.519287 646.806274,551.467102 660.757568,561.265930 
	C664.039062,563.570740 665.792542,563.496887 668.374084,560.249634 
	C694.822571,526.980530 708.910156,489.140106 711.076294,446.742706 
	C711.261353,443.120789 710.031189,442.030365 706.667297,442.001801 
	C697.689270,441.925629 688.691040,442.253418 679.752930,441.012238 
	C677.810730,440.742523 675.173035,441.002808 675.157593,438.345703 
	C675.144470,436.080170 676.235413,433.770447 679.000793,433.131500 
	C682.756653,432.263702 686.545349,431.663818 690.388062,432.399994 
	C696.054565,433.485474 701.640747,432.871796 707.275208,432.036255 
	C710.009338,431.630798 710.985596,430.363251 710.955750,427.772217 
	C710.898132,422.775085 710.478638,417.836548 709.796997,412.869049 
	C705.225708,379.554688 693.234131,349.256439 672.962402,321.515533 
M314.440887,414.693634 
	C312.924133,416.665649 310.907135,418.460052 310.771942,421.100403 
	C310.153931,433.169067 308.046936,445.208801 311.454956,457.287994 
	C314.199463,467.015564 317.232086,476.645905 320.107819,486.316650 
	C326.369965,507.375305 333.840210,527.725647 346.657501,545.772705 
	C347.953583,547.597595 348.797974,550.005493 352.382294,550.657227 
	C354.131165,542.591492 355.893097,534.706604 353.908691,526.369629 
	C352.706085,521.317200 347.801880,517.435120 348.436462,512.089233 
	C349.980743,499.079773 354.697296,487.649780 366.966003,480.871277 
	C367.840271,480.388275 368.596344,479.943390 369.160553,478.990814 
	C376.933014,465.869080 385.088501,452.959686 392.396362,439.586304 
	C394.540192,435.663147 398.983307,432.963898 398.836548,427.702087 
	C397.995270,397.539886 404.131622,368.462616 412.888885,339.839203 
	C414.041077,336.073303 413.126007,334.252228 409.562531,333.117432 
	C393.767883,328.087646 378.814362,321.248749 365.085144,311.902863 
	C362.631897,310.232849 361.017426,310.494934 359.196167,312.747589 
	C343.752777,331.848969 332.179962,353.033844 324.202240,376.276001 
	C319.969116,388.608643 318.461121,401.564636 314.440887,414.693634 
M462.287231,361.095734 
	C463.660645,362.271179 465.610535,363.245636 465.336578,365.354584 
	C464.809967,369.408936 467.582581,370.887268 470.355530,372.519440 
	C479.645569,377.987610 489.178345,376.938416 498.735992,373.491852 
	C516.394592,367.124023 532.170044,357.070038 548.414673,347.938171 
	C553.994080,344.801666 559.590759,341.695923 565.770142,338.246429 
	C572.943481,363.172699 579.132996,387.428680 586.842102,411.708344 
	C591.831848,409.561829 595.554016,406.520447 599.381958,403.701263 
	C602.229126,401.604401 603.385071,398.533295 603.687988,395.042114 
	C606.072998,367.553497 608.522217,340.070404 610.874390,312.579041 
	C611.150818,309.348145 612.333801,307.055725 615.134644,305.208282 
	C625.008179,298.695587 634.644409,291.831085 643.730591,284.242432 
	C649.643860,279.303741 655.193970,274.013275 657.776550,266.430267 
	C660.033203,259.804352 657.897827,255.361633 651.190308,253.251373 
	C644.938293,251.284470 638.732178,251.871017 632.601013,254.112000 
	C618.530151,259.255005 606.444824,267.957642 593.891174,275.784912 
	C590.729309,277.756348 588.081299,278.016296 584.610535,277.022827 
	C557.908569,269.379669 531.049438,262.325806 503.973175,256.117798 
	C502.192413,255.709488 500.446350,255.064819 498.607391,255.884003 
	C492.992767,258.385132 487.838654,261.639160 481.922485,265.517365 
	C503.292664,279.894623 524.002197,293.827393 544.555542,307.655121 
	C543.544800,310.214844 541.949097,310.922455 540.628540,311.878510 
	C524.848450,323.303131 508.956879,334.577423 493.332947,346.211304 
	C490.112488,348.609344 487.356598,348.950897 483.731812,347.980804 
	C476.344269,346.003693 468.761261,344.708069 461.457703,342.479828 
	C454.093170,340.233002 449.869720,344.823273 444.093231,348.556396 
	C450.506561,352.978271 456.104492,356.837921 462.287231,361.095734 
M391.817688,281.347778 
	C383.390594,287.067261 376.275818,294.184967 369.669128,301.443054 
	C370.126526,303.279572 371.250458,303.819611 372.208618,304.397125 
	C385.193481,312.222931 398.459259,319.425873 413.080109,323.877228 
	C416.745148,324.993042 418.485718,324.302979 419.828461,320.675690 
	C423.589050,310.516785 428.396973,300.821777 433.837585,291.457397 
	C435.093842,289.295197 435.938599,286.572357 438.914185,285.766632 
	C441.755920,292.159607 442.395477,297.920654 438.454102,304.149261 
	C435.381226,309.005402 433.680573,314.723724 431.311920,320.032898 
	C426.744904,330.269562 426.926697,328.436768 436.962402,331.368439 
	C446.206360,334.068817 455.710815,334.612030 464.926514,332.728485 
	C474.723267,330.726135 484.269806,327.970428 494.429718,329.297058 
	C499.315643,329.935028 506.873260,325.178650 507.050049,320.957642 
	C507.376526,313.162598 507.012878,305.337677 506.881439,297.526154 
	C506.871063,296.909363 506.597839,296.121674 506.164032,295.714905 
	C502.440887,292.224091 500.075226,287.532959 495.448090,284.763519 
	C488.742645,280.750183 482.398956,276.133881 475.884796,271.799042 
	C469.776733,267.734467 469.673065,263.772675 475.532379,259.436310 
	C478.889130,256.952057 482.906769,255.135544 485.259766,249.591919 
	C471.334412,256.845947 462.811005,268.307526 453.289886,278.696228 
	C449.514282,272.265961 448.439117,266.764648 454.539917,261.956879 
	C455.832794,260.937988 456.795380,259.510590 457.983521,258.346313 
	C462.056671,254.354919 466.162384,250.396774 470.255707,246.425964 
	C441.140564,251.400726 415.543518,263.462189 391.817688,281.347778 
M458.516144,404.996307 
	C460.944458,402.564667 464.213196,401.027496 466.460236,397.648773 
	C461.331726,394.548218 456.272278,391.726501 451.481018,388.505890 
	C448.499512,386.501801 446.657501,387.137054 444.226471,389.507111 
	C435.616577,397.901062 428.011749,407.140930 420.483978,416.477722 
	C397.061310,445.529175 378.229919,477.054077 367.993347,513.246765 
	C362.660675,532.101135 360.145172,551.234253 362.285065,570.815857 
	C362.670135,569.028198 362.695221,567.199097 362.963013,565.406128 
	C367.762177,533.275940 379.881256,503.991730 397.091125,476.589966 
	C413.887573,449.846497 434.908295,426.793884 458.516144,404.996307 
M380.037628,584.445068 
	C392.226410,594.235046 404.378632,604.104858 418.525482,611.026367 
	C424.976959,614.182739 428.174469,612.679138 429.629974,605.670349 
	C430.429108,601.822327 432.077057,599.687683 435.780029,598.167175 
	C438.795868,596.928711 442.377686,594.839355 439.548065,590.218445 
	C431.460541,577.010986 424.267975,563.342285 418.413544,548.985657 
	C417.763123,547.390625 416.858521,546.070557 414.629456,546.891479 
	C399.718140,552.382507 385.983185,560.179810 372.642517,568.651733 
	C369.444092,570.682861 369.169617,574.287415 372.131683,577.264648 
	C374.472839,579.617737 377.028870,581.757019 380.037628,584.445068 
M610.175537,546.152405 
	C607.654419,545.739014 607.671814,547.984436 607.122681,549.320923 
	C601.614197,562.729370 594.988586,575.554993 587.432190,587.918701 
	C586.346741,589.694702 584.863586,591.421448 585.068665,594.279175 
	C591.520691,595.724915 596.353455,599.968628 601.014954,604.522522 
	C605.865967,609.261658 608.801575,609.683777 614.859192,606.401611 
	C628.552856,598.982239 640.747009,589.528015 651.844299,578.645325 
	C653.929443,576.600525 656.403442,574.800964 657.698242,571.502930 
	C643.424927,560.382812 627.273132,553.080444 610.175537,546.152405 
M598.128296,543.259644 
	C598.458923,541.269470 596.803528,541.173828 595.635742,540.816406 
	C579.555298,535.894775 563.239441,532.055176 546.445129,530.598999 
	C541.893738,530.204346 538.992249,533.459839 539.751831,537.911438 
	C540.389099,541.645752 539.637695,545.146912 538.678772,548.719238 
	C537.430298,553.370667 538.193604,557.289490 543.287964,559.367920 
	C544.955261,560.048157 546.335083,561.431091 548.001038,562.117126 
	C550.576538,563.177734 551.295349,564.588745 549.875366,567.111755 
	C548.779785,569.058411 549.134827,570.947510 550.687012,572.603821 
	C551.845581,573.840088 553.002136,575.233826 552.564514,577.015564 
	C551.430969,581.631531 554.471191,583.207275 557.812134,584.719055 
	C559.463501,585.466309 561.169434,586.214539 562.608826,587.286987 
	C568.545837,591.710754 572.701660,591.164062 576.801941,585.127747 
	C585.539246,572.264771 592.163879,558.311707 598.128296,543.259644 
M423.853821,398.370636 
	C427.266968,394.737274 430.674500,391.098602 434.094635,387.471802 
	C439.231293,382.024719 444.887115,376.819336 442.593903,368.093414 
	C442.438080,367.500427 442.515503,366.596954 442.874756,366.155579 
	C447.540710,360.423096 442.436829,358.191315 439.058380,355.346161 
	C437.660278,354.168762 436.172150,353.092133 434.830200,351.855530 
	C432.682495,349.876373 432.342590,347.677246 434.194061,345.235077 
	C434.946106,344.243164 436.382599,343.579346 435.974335,341.593567 
	C433.906738,340.994446 431.617706,340.564026 429.522919,339.675598 
	C425.176910,337.832458 423.217316,339.304474 422.260315,343.769409 
	C420.908417,350.076477 419.185944,356.313904 417.391144,362.514313 
	C413.021149,377.611237 411.265900,393.067566 410.751343,408.708527 
	C410.719391,409.679413 410.676636,410.769440 412.733368,411.082794 
	C414.039337,405.265442 419.700989,403.004028 423.853821,398.370636 
M411.374939,528.956543 
	C409.960266,524.531555 408.438538,520.136780 407.173828,515.669373 
	C406.491180,513.257996 405.221588,512.590820 402.807800,512.874512 
	C391.066589,514.254456 379.686646,528.371277 381.054474,540.005432 
	C381.629974,544.900513 386.419800,547.577087 390.880096,545.525513 
	C396.615601,542.887329 402.311340,540.151855 408.127899,537.704712 
	C412.025269,536.065002 413.732941,533.808289 411.374939,528.956543 
M638.154419,305.798401 
	C634.664001,306.446411 630.971008,304.648529 627.564331,307.290924 
	C624.800049,309.435028 624.095825,311.658997 625.693359,314.560150 
	C627.249268,317.385681 629.658264,317.145996 632.151917,315.881226 
	C636.145691,313.855530 640.252747,312.083618 643.880676,309.335083 
	C646.484680,307.362244 650.503479,307.272766 651.995850,303.363525 
	C649.654053,301.617065 647.493347,301.577179 645.422913,303.205017 
	C643.499084,304.717529 641.242859,305.173950 638.154419,305.798401 
z"/>
<path fill="#000000" opacity="1.000000" stroke="none" 
	d="
M512.902344,546.090820 
	C514.384705,548.086975 515.270203,550.118958 517.423584,551.573059 
	C519.099670,548.417419 518.592407,545.096924 518.650696,541.898071 
	C518.700806,539.149963 519.686829,537.241272 522.647949,537.333496 
	C525.287170,537.415710 526.434143,539.210693 526.343689,541.729736 
	C526.098755,548.549561 527.216675,555.356323 526.457703,562.186279 
	C526.224854,564.281738 525.944824,566.243164 523.674194,567.010681 
	C521.209717,567.843628 518.956665,567.269104 517.449829,565.132507 
	C514.295654,560.660156 511.295380,556.079163 507.322144,550.195618 
	C507.322144,555.037720 507.295471,558.533203 507.330475,562.028198 
	C507.358826,564.862427 506.505554,567.153748 503.281342,567.173401 
	C499.758636,567.194946 499.610901,564.501221 499.615265,561.860657 
	C499.625671,555.531616 499.622528,549.202515 499.612610,542.873474 
	C499.608978,540.564270 500.057220,538.532043 502.601166,537.712158 
	C505.014343,536.934448 506.870880,537.917847 508.309235,539.737732 
	C509.855530,541.694214 511.244995,543.774597 512.902344,546.090820 
z"/>
<path fill="#000000" opacity="1.000000" stroke="none" 
	d="
M665.640015,243.189865 
	C662.752808,240.932205 658.966309,240.143417 657.599792,235.144012 
	C663.000488,237.733124 666.707825,240.918488 670.424805,244.945908 
	C668.128540,245.322266 667.240112,243.835983 665.640015,243.189865 
z"/>
<path fill="#000000" opacity="1.000000" stroke="none" 
	d="
M546.754272,712.302612 
	C548.841858,715.997742 551.721313,718.835754 553.409729,724.008972 
	C548.917358,721.136658 545.501892,718.965088 542.099365,716.773376 
	C539.718201,715.239502 537.347412,713.689209 534.984436,712.127319 
	C525.088196,705.585632 525.087280,705.582397 522.503540,716.976257 
	C520.075623,727.683044 517.667786,738.394531 515.216370,749.095947 
	C514.818176,750.833984 514.239990,752.530823 513.157043,754.310364 
	C507.732300,738.732849 505.226196,722.437500 500.643921,705.619568 
	C491.325348,711.800598 482.819977,717.442200 474.314606,723.083862 
	C473.955597,722.796448 473.596619,722.509094 473.237610,722.221680 
	C477.348938,713.267761 484.333679,705.877563 488.998749,696.340759 
	C473.154266,691.116760 457.207062,688.858521 441.884796,683.725403 
	C457.271515,678.968506 473.063934,676.294312 489.120667,671.407898 
	C484.585480,661.806091 478.017365,654.075806 473.613861,644.924683 
	C482.859711,649.435425 490.679749,656.134888 500.453888,661.140686 
	C505.657074,644.611572 507.771729,628.010132 512.403870,612.088562 
	C512.894714,612.057739 513.385559,612.026917 513.876343,611.996094 
	C517.616760,628.137146 521.357178,644.278259 525.285217,661.228943 
	C535.260437,656.183899 543.082703,649.428528 551.988037,644.554382 
	C552.298523,644.845947 552.609070,645.137573 552.919556,645.429138 
	C547.481750,653.812439 542.043945,662.195740 536.144653,671.290466 
	C552.437439,676.181824 568.534851,679.010315 584.312866,683.656677 
	C568.849060,688.665283 552.829651,691.298950 536.625854,696.814636 
	C540.236023,702.340088 543.393127,707.172058 546.754272,712.302612 
M522.291016,687.745605 
	C523.455505,684.111389 524.030884,680.021790 520.803894,677.653625 
	C517.385620,675.145020 513.007874,673.264893 508.533600,674.676453 
	C504.020294,676.100342 502.382111,679.986328 502.379059,684.438599 
	C502.376038,688.794189 505.733032,692.974915 509.384796,693.620605 
	C513.227417,694.299988 520.526428,691.235962 522.291016,687.745605 
z"/>
<path fill="#000000" opacity="1.000000" stroke="none" 
	d="
M607.670288,836.047729 
	C610.140381,831.408386 613.563965,828.401855 618.255981,827.035828 
	C619.991150,826.530640 622.075256,826.161560 622.938660,828.447388 
	C623.776978,830.666931 622.916992,832.375549 620.597046,833.109375 
	C615.742310,834.644958 613.428955,838.237488 612.624268,842.978516 
	C612.184814,845.567810 611.282654,847.704163 608.221191,846.955017 
	C605.458557,846.278931 605.652771,843.754700 605.976257,841.625793 
	C606.246460,839.847168 606.984619,838.139648 607.670288,836.047729 
z"/>
<path fill="#000000" opacity="1.000000" stroke="none" 
	d="
M339.243866,829.822510 
	C339.207703,831.320557 338.741608,832.207703 337.733337,832.593689 
	C332.449646,834.616089 329.300323,838.120605 329.076843,844.050598 
	C328.990082,846.352600 327.008423,846.868652 325.045532,846.687744 
	C322.991241,846.498413 322.424774,844.965576 322.301544,843.160217 
	C321.842438,836.435059 328.595428,828.019287 335.305176,826.943787 
	C337.358459,826.614624 338.974457,826.917419 339.243866,829.822510 
z"/>
<path fill="#000000" opacity="1.000000" stroke="none" 
	d="
M643.823608,348.762512 
	C639.320923,348.809875 639.389099,344.215424 636.880249,342.183197 
	C640.135315,343.323853 643.952393,343.787231 643.823608,348.762512 
z"/>
</svg>